<svg width="292" height="185" viewBox="0 0 292 185" fill="none" xmlns="http://www.w3.org/2000/svg">
<path d="M204.288 157.605C177.807 180.699 117.267 172.867 117.267 172.867C104.816 166.883 102.379 142.891 102.727 122.354C103.022 105.298 105.231 90.6384 105.231 90.6384C115.888 86.7157 126.022 88.9515 133.667 92.352C141.967 96.0337 147.336 101.068 147.336 101.068L227.248 103.959C227.248 103.973 230.783 134.537 204.288 157.605Z" fill="#4C7CC6"/>
<path d="M204.288 157.605C177.807 180.699 117.267 172.867 117.267 172.867C104.816 166.883 102.379 142.891 102.727 122.354C108.096 144.404 128.954 161.956 151.714 163.08C147.175 158.18 144.926 151.232 145.743 144.605C148.742 145.89 151.754 147.176 154.766 148.461C142.61 132.315 137.241 112.487 133.667 92.3654C141.967 96.0471 147.336 101.081 147.336 101.081L227.248 103.973C227.248 103.973 230.783 134.537 204.288 157.605Z" fill="#4570BA"/>
<path d="M172.585 122.595C172.585 122.595 182.224 139.437 191.984 139.464C201.73 139.491 215.011 120.212 215.011 120.212L172.585 122.595Z" fill="#D98282"/>
<path d="M248.945 83.5722C256.721 78.9279 265.868 79.9226 269.375 85.7932C272.883 91.6652 269.422 100.191 261.646 104.835C253.871 109.479 244.724 108.484 241.217 102.614C237.709 96.7419 241.17 88.2164 248.945 83.5722Z" fill="#D98282"/>
<path d="M132.97 98.8719C129.061 86.488 126.57 73.475 127.521 60.5289C128.472 47.5694 133.077 34.6233 141.913 25.1179C150.454 15.9204 162.437 10.4581 174.727 7.88761C191.247 4.43353 209.348 6.14718 223.539 15.3045C234.678 22.4938 242.804 33.9271 247.008 46.5117C251.212 59.0964 251.627 72.7654 249.19 86.488C254.331 89.6744 256.326 96.6495 254.76 102.5C253.193 108.35 248.655 113.05 243.42 116.089C238.185 119.128 232.241 120.694 226.351 122.113C210.098 126.009 193.296 128.981 176.708 126.92C160.121 124.831 139.329 119.021 132.97 98.8719Z" fill="#E89E99"/>
<path d="M137.054 83.0607C134.43 69.954 136.317 55.9904 142.329 44.0618C148.34 32.1331 158.448 22.3064 170.537 16.6299C170.323 20.3384 168.917 23.9665 166.574 26.8583C171.528 26.711 176.454 25.8006 181.127 24.1539C180.123 26.8851 179.132 29.6162 178.128 32.3473C185.478 33.4719 193.296 31.0487 198.705 25.9479C199.615 28.746 200.539 31.5441 201.45 34.3421C207.22 27.6482 207.528 16.8575 202.132 9.85564C213.258 14.4611 223.874 20.566 232.67 28.7995C241.453 37.0331 248.361 47.5024 251.333 59.1767C249.003 36.0692 232.657 14.9564 210.875 6.89691C201.664 3.49638 191.596 2.30486 181.903 3.84447C174.098 5.07615 166.668 8.02149 159.452 11.248C152.45 14.3808 145.421 17.9018 140.12 23.4444C133.091 30.7943 129.757 41.1432 129.436 51.3046C129.115 61.466 131.578 71.5471 137.054 83.0607Z" fill="#D98282"/>
<path d="M128.767 94.8288C131.11 96.5157 135.675 97.2922 140.254 99.3138C137.121 82.2308 134.363 58.5208 142.784 40.2463C149.424 25.8275 165.343 13.5106 175.531 11.1811C173.134 17.5136 169.265 23.3909 164.057 27.7018C168.596 28.4381 173.389 27.4474 177.244 24.9573C181.1 22.4671 183.992 18.5043 185.17 14.0729C184.126 21.0748 181.247 27.7955 176.936 33.3917C182.091 35.2927 188.223 34.2485 192.426 30.7275C196.644 27.2065 198.786 21.3693 197.848 15.974C200.245 22.2797 200.874 28.8264 199.482 34.9045C204.342 33.1239 207.742 28.09 208.371 22.6679C209.001 17.2458 206.858 11.556 202.802 7.90108C220.206 12.5601 233.246 22.7349 241.239 36.0157C249.218 49.2965 250.476 61.6134 249.619 81.548C254.586 68.0931 255.376 55.7227 251.869 43.6066C251.654 42.8971 251.454 42.1875 251.213 41.4913C247.477 30.2321 240.208 20.151 230.676 13.0956C217.515 3.38935 200.66 -0.35926 184.313 0.0423773C173.804 0.28336 163.134 2.2246 153.869 7.16474C153.521 7.3254 153.173 7.52622 152.825 7.71365C138.593 15.7196 129.008 30.6471 125.42 46.5654C121.845 62.4836 123.813 79.272 128.767 94.8288Z" fill="#140C2E"/>
<path d="M153.883 7.13793C171.528 2.42539 190.218 1.80954 207.609 7.07099C225.763 12.56 242.109 25.051 251.226 41.4779C247.491 30.2187 240.221 20.1376 230.689 13.0822C217.529 3.37593 200.674 -0.372688 184.327 0.0289495C173.831 0.269932 163.161 2.19779 153.883 7.13793Z" fill="#32294A"/>
<path d="M148.099 106.506C149.672 99.8503 144.022 92.8187 135.481 90.801C126.94 88.7832 118.741 92.5434 117.168 99.1995C115.596 105.856 121.245 112.887 129.787 114.905C138.328 116.923 146.527 113.162 148.099 106.506Z" fill="#E89E99"/>
<path d="M179.266 69.2578C177.499 65.8573 173.656 63.7956 169.828 63.7286C165.999 63.6617 162.277 65.3887 159.479 67.9994C156.681 70.61 154.766 74.0507 153.454 77.6387C159.746 71.3463 169.212 68.401 179.266 69.2578Z" fill="#140C2E"/>
<path d="M216.137 67.1693C216.833 63.3805 220.274 60.4486 224.049 59.6854C227.824 58.9223 231.814 60.0871 235.067 62.1488C238.32 64.2106 240.945 67.1291 243.341 70.1548C236.54 65.6966 227.905 64.1168 216.137 67.1693Z" fill="#140C2E"/>
<path d="M209.829 98.0686C211.061 99.153 211.503 100.84 210.914 102.232" stroke="#80214C" stroke-miterlimit="10" stroke-linecap="round"/>
<path d="M170.537 105.887C172.94 105.887 174.888 103.939 174.888 101.536C174.888 99.133 172.94 97.185 170.537 97.185C168.134 97.185 166.186 99.133 166.186 101.536C166.186 103.939 168.134 105.887 170.537 105.887Z" fill="#262D42"/>
<path d="M228.774 95.1634C231.177 95.1634 233.125 93.2154 233.125 90.8124C233.125 88.4093 231.177 86.4613 228.774 86.4613C226.371 86.4613 224.423 88.4093 224.423 90.8124C224.423 93.2154 226.371 95.1634 228.774 95.1634Z" fill="#262D42"/>
<path d="M266.381 152.611C266.381 152.611 251.359 173.657 243.193 175.585C235.026 177.512 199.146 157.096 199.146 157.096L217.729 132.703L266.381 152.611Z" fill="#D98282"/>
<path d="M230.902 103.799C227.702 103.906 224.034 105.606 218.13 108.471C214.917 110.024 211.141 110.774 210.03 110.841C210.03 110.867 210.044 110.894 210.044 110.921C210.231 111.269 210.338 111.657 210.365 112.113C210.392 112.929 210.552 113.706 210.566 114.522C210.579 115.125 210.378 115.674 210.057 116.129C211.302 115.861 210.66 115.888 212.132 115.754C207.808 124.108 212.587 129.262 214.984 128.834C219.629 120.587 230.648 112.166 239.591 109.073C238.64 105.044 236.016 103.611 230.902 103.799Z" fill="#F5AF5F"/>
<path d="M241.586 110.894C241.131 109.622 240.997 107.815 239.833 107.105C238.668 106.409 237.222 106.423 235.87 106.57C227.489 107.467 219.67 112.568 215.48 119.877C214.248 122.02 213.311 124.416 213.405 126.879C213.499 129.343 214.195 132.596 218.104 132.462C228.44 132.101 244.077 117.816 241.586 110.894Z" fill="#FCCA79"/>
<path opacity="0.4784" d="M215.639 130.4C218.651 117.816 225.934 110.265 238.599 109.1C240.554 108.926 242.482 109.649 243.901 111.015L289.594 154.847C291.388 156.574 292.097 159.131 291.508 161.541C287.586 177.579 277.973 184.528 264.277 184.996C262.283 185.063 260.355 184.206 259.016 182.72L217.259 136.559C215.76 134.885 215.117 132.583 215.639 130.4Z" fill="#A8CFED"/>
<path d="M248.547 122.984L247.717 118.378C247.717 118.378 247.222 117.561 240.863 118.378C234.503 119.195 221.557 122.542 221.397 124.001C221.236 125.46 223.873 126.719 223.873 126.719L248.547 122.984Z" fill="#E1E9F0"/>
<path d="M286.408 155.637L247.677 118.365C247.462 123.452 221.999 124.362 221.45 123.947C220.459 125.942 219.669 128.178 219.08 130.641C218.638 132.502 219.174 134.47 220.472 135.903L260.288 179.454C261.439 180.726 263.073 181.462 264.786 181.395C276.474 181.007 284.694 175.062 288.041 161.367C288.563 159.292 287.948 157.109 286.408 155.637Z" fill="white"/>
<path d="M210.138 118.351C211.41 116.838 211.972 114.737 211.61 112.795C211.249 110.854 209.99 109.087 208.25 108.136" fill="#E89E99"/>
<path d="M210.138 118.351C211.41 116.838 211.972 114.737 211.61 112.795C211.249 110.854 209.99 109.087 208.25 108.136" stroke="#80214C" stroke-miterlimit="10" stroke-linecap="round"/>
<path d="M211.852 138.58C212.668 131.592 216.511 123.961 221.933 119.476C223.017 118.579 224.249 117.722 225.655 117.628C227.06 117.535 228.613 118.512 228.667 119.918C228.694 120.654 228.319 121.337 227.971 121.979C226.498 124.617 225.012 127.254 223.539 129.905C226.19 126.919 229.912 124.885 233.862 124.269C235.307 124.041 237.182 124.269 237.61 125.661C237.945 126.759 237.142 127.83 236.378 128.687C234.33 131.016 232.282 133.332 230.233 135.662C232.965 133.814 236.298 132.877 239.592 133.011C240.823 133.065 242.323 133.533 242.483 134.751C242.604 135.689 241.814 136.465 241.091 137.054C238.855 138.915 236.512 140.642 234.076 142.222C235.656 142.342 237.168 141.968 238.721 141.673C240.274 141.378 242.175 141.352 242.872 142.771C244.21 145.502 234.33 149.666 234.33 149.666C234.33 149.666 233.085 155.235 227.957 156.614C223.954 157.698 221.089 157.19 217.943 154.566C215.467 152.531 210.567 149.585 211.852 138.58Z" fill="#E89E99"/>
<path d="M212.494 138.862C212.494 138.862 194.407 146.024 191.769 146.332C189.132 146.64 159.223 111.845 147.643 132.06C136.999 150.643 152.944 163.147 159.411 167.11C169.893 173.536 188.503 178.423 194.581 177.245C204.662 175.29 226.685 155.958 226.685 155.958L212.494 138.862Z" fill="#E89E99"/>
<path d="M274.118 137.416C272.753 130.2 269.513 123.091 263.783 118.499C258.066 113.906 249.578 112.367 243.206 116.008C241.653 116.892 240.113 118.806 241.117 120.279C241.76 121.23 243.099 121.35 244.25 121.377C248.588 121.471 252.925 121.578 257.25 121.671C253.126 121.979 249.15 124.028 246.513 127.214C245.629 128.285 244.866 129.798 245.549 131.016C246.365 132.462 248.454 132.315 250.074 131.967C254.17 131.097 258.281 130.213 262.377 129.343C258.843 130.253 255.603 132.288 253.247 135.086C252.296 136.211 251.506 137.924 252.457 139.036C253.247 139.959 254.693 139.785 255.871 139.518C259.177 138.768 262.444 137.844 265.657 136.733C263.047 138.513 260.838 140.856 259.204 143.547C258.736 144.324 258.307 145.261 258.615 146.104C259.097 147.376 260.838 147.537 262.176 147.309C267.331 146.466 272.016 143.226 274.118 137.416Z" fill="#E89E99"/>
<path d="M75.9374 120.266C75.6562 116.879 75.3751 113.478 75.0939 110.091C77.1021 110.131 78.6016 107.842 78.2267 105.874C77.8518 103.906 76.0712 102.433 74.1568 101.857C72.2423 101.282 70.1806 101.416 68.1858 101.616C57.6495 102.647 47.2203 104.963 37.407 108.913C35.4255 109.716 33.2835 110.76 32.4936 112.755C31.4359 115.419 33.5111 118.485 36.1485 119.57C38.7859 120.654 41.7848 120.306 44.6097 119.931C42.5345 127.053 43.6055 135.019 47.4747 141.338C51.3438 147.657 57.9708 152.223 65.2538 153.602C69.2702 143.039 76.9682 132.703 75.9374 120.266Z" fill="#D98282"/>
<path d="M119.649 173.858C103.865 148.233 99.2726 114.616 115.833 88.5766C115.753 86.3542 112.701 85.0556 110.987 85.2162C109.26 85.3769 107.68 86.5416 107.265 88.1884C92.8598 90.6383 81.1587 102.139 75.2948 115.526C71.4391 124.322 69.7523 134.189 71.2919 143.668C72.8449 153.146 77.785 162.183 85.4563 167.954C93.1409 173.737 103.584 175.946 119.649 173.858Z" fill="white"/>
<path d="M27.9685 166.869C50.661 177.339 77.0754 179.534 100.544 172.68C101.321 160.724 102.084 148.581 99.5403 136.88C96.9966 125.179 90.6507 113.759 79.7128 107.869C72.2557 120.172 52.1873 140.415 52.1873 140.415C52.1873 140.415 40.4327 141.74 33.7789 140.642C35.0106 139.022 34.1805 136.425 32.4133 135.394C30.6461 134.363 28.3568 134.644 26.5494 135.595C24.742 136.546 23.3095 138.072 21.9172 139.571C15.2098 146.787 8.48911 154.003 1.78177 161.206C0.978495 162.076 0.121659 163.027 0.0145553 164.205C-0.226427 166.615 2.57166 168.114 4.94132 168.636C11.8093 170.122 19.186 169.185 27.9685 166.869Z" fill="#E89E99"/>
</svg>
