<svg width="432" height="342" viewBox="0 0 432 342" fill="none" xmlns="http://www.w3.org/2000/svg">
<path d="M154.916 302.88C112.296 288.923 74.5046 260.222 52.7105 221.901C30.9164 183.58 26.0498 135.756 42.3195 94.6172C58.5893 53.4773 96.5314 20.3767 140.802 11.797C173.629 5.43555 211.959 14.7056 229.364 42.4058C238.436 56.8436 241.543 75.3933 254.868 86.235C266.23 95.4794 282.318 96.7139 297.146 95.7729C311.974 94.8318 327.023 92.1539 341.533 95.1385C368.631 100.712 388.278 126.103 392.151 152.876C396.025 179.649 386.407 207.004 371.512 229.957C349.214 264.319 314.686 291.016 275.349 304.312C236.011 317.607 192.933 315.33 154.916 302.88Z" fill="#FFEEEE"/>
<path d="M384.825 270.604C389.047 261.807 396.586 254.803 405.301 251.582C414.016 248.362 423.796 248.966 431.86 253.222C419.644 264.049 404.535 271.053 384.825 270.604Z" fill="#ADE08B"/>
<path d="M416.251 255.874C375.134 271.747 338.315 302.013 312.885 340.841" stroke="#5ECC84" stroke-width="2" stroke-miterlimit="10" stroke-linecap="round" stroke-linejoin="round"/>
<path d="M368.952 282.083C383.007 270.085 392.365 251.803 394.119 232.923C376.917 242.226 365.631 263.456 368.952 282.083Z" fill="#ADE08B"/>
<path d="M368.839 280.943C372.003 271.307 376.254 262.038 381.463 253.414" stroke="#5ECC84" stroke-width="2" stroke-miterlimit="10" stroke-linecap="round" stroke-linejoin="round"/>
<path d="M355.255 291.305C364.256 277.081 365.922 258.031 359.476 243.045C351.211 256.886 348.885 274.485 355.255 291.305Z" fill="#ADE08B"/>
<path d="M355.097 291.812C356.643 282.592 357.683 273.299 358.21 263.999" stroke="#5ECC84" stroke-width="2" stroke-miterlimit="10" stroke-linecap="round" stroke-linejoin="round"/>
<path d="M338.913 306.552C348.61 292.668 348.489 272.771 338.608 256.146C329.796 269.718 328.914 288 338.913 306.552Z" fill="#ADE08B"/>
<path d="M338.771 307.068C339.647 297.531 339.875 287.852 339.455 278.104" stroke="#5ECC84" stroke-width="2" stroke-miterlimit="10" stroke-linecap="round" stroke-linejoin="round"/>
<path d="M372.391 279.18C386.817 271.941 404.403 273.629 416.663 283.43C403.374 292.137 385.995 292.39 372.391 279.18Z" fill="#ADE08B"/>
<path d="M372.681 279.006C382.22 280.781 391.759 282.556 401.298 284.331" stroke="#5ECC84" stroke-width="2" stroke-miterlimit="10" stroke-linecap="round" stroke-linejoin="round"/>
<path d="M350.524 295.499C365.205 287.338 383.688 288.801 396.284 299.12C382.964 305.685 367.63 306.817 350.524 295.499Z" fill="#ADE08B"/>
<path d="M352.162 295.786C360.731 296.51 369.3 297.234 377.869 297.958" stroke="#5ECC84" stroke-width="2" stroke-miterlimit="10" stroke-linecap="round" stroke-linejoin="round"/>
<path d="M332.977 313.512C339.915 307.773 349.165 306.202 357.492 307.79C365.819 309.379 373.34 313.836 380.097 319.11C364.757 323.921 348.178 323.009 332.977 313.512Z" fill="#ADE08B"/>
<path d="M333.573 314.175C342.027 312.246 350.841 312.787 358.819 315.724" stroke="#5ECC84" stroke-width="2" stroke-miterlimit="10" stroke-linecap="round" stroke-linejoin="round"/>
<path d="M112.988 260.597C118.194 229.6 112.961 197.081 98.4526 170.26C83.9434 143.44 60.2651 122.513 32.6719 112.127C48.7722 131.925 46.4932 162.41 58.1721 185.496C65.7913 200.557 78.8074 211.444 89.9294 223.762C101.051 236.081 110.921 251.714 112.988 260.597Z" fill="#5ECC84"/>
<path d="M59.1309 141.913C78.6964 182.085 102.892 209.583 112.463 259.087" stroke="#ADE08B" stroke-width="2" stroke-miterlimit="10" stroke-linecap="round" stroke-linejoin="round"/>
<path d="M59.5813 248.274C54.5114 238.136 45.1225 230.373 34.0839 227.195C23.0453 224.017 10.4945 225.462 0 231.12C15.2329 243.076 34.3157 250.272 59.5813 248.274Z" fill="#ADE08B"/>
<path d="M19.8916 233.109C71.949 248.911 104.305 270.947 133.267 309.844" stroke="#5ECC84" stroke-width="2" stroke-miterlimit="10" stroke-linecap="round" stroke-linejoin="round"/>
<path d="M79.4716 260.733C61.9295 247.522 50.6446 226.495 49.124 204.192C70.8 213.966 84.4427 238.352 79.4716 260.733Z" fill="#ADE08B"/>
<path d="M79.6598 259.369C75.9775 248.155 70.8883 237.457 64.5479 227.598" stroke="#5ECC84" stroke-width="2" stroke-miterlimit="10" stroke-linecap="round" stroke-linejoin="round"/>
<path d="M96.6612 270.671C85.6785 254.438 84.2771 231.927 93.11 213.641C103.163 229.471 105.467 250.211 96.6612 270.671Z" fill="#ADE08B"/>
<path d="M96.845 271.262C95.2182 260.421 94.2436 249.456 93.9258 238.445" stroke="#5ECC84" stroke-width="2" stroke-miterlimit="10" stroke-linecap="round" stroke-linejoin="round"/>
<path d="M75.1784 257.538C56.9778 250.01 34.3867 253.325 18.3057 265.883C34.9922 275.24 57.2443 274.247 75.1784 257.538Z" fill="#ADE08B"/>
<path d="M74.8143 257.353C62.5272 260.172 50.2402 262.991 37.9531 265.81" stroke="#5ECC84" stroke-width="2" stroke-miterlimit="10" stroke-linecap="round" stroke-linejoin="round"/>
<path d="M102.56 275.302C84.0689 266.698 60.3375 269.811 43.8066 283.01C60.615 289.82 80.2135 290.024 102.56 275.302Z" fill="#ADE08B"/>
<path d="M100.451 275.766C89.4459 277.263 78.4422 278.762 67.4375 280.259" stroke="#5ECC84" stroke-width="2" stroke-miterlimit="10" stroke-linecap="round" stroke-linejoin="round"/>
<path d="M124.346 295.4C115.678 289.096 103.891 287.918 93.1638 290.425C82.4367 292.932 72.632 298.787 63.7734 305.557C83.2373 310.134 104.509 307.816 124.346 295.4Z" fill="#ADE08B"/>
<path d="M123.555 296.233C112.801 294.57 101.489 295.869 91.1572 299.952" stroke="#5ECC84" stroke-width="2" stroke-miterlimit="10" stroke-linecap="round" stroke-linejoin="round"/>
<path d="M255.105 218.467C249.848 188.772 254.511 157.609 268.059 131.895C281.607 106.182 303.94 86.1068 330.101 76.1264C314.97 95.1129 317.436 124.32 306.546 146.452C299.442 160.89 287.159 171.335 276.693 183.149C266.228 194.963 256.987 209.954 255.105 218.467Z" fill="#5ECC84"/>
<path d="M305.209 104.694C286.979 143.205 264.218 169.578 255.592 217.02" stroke="#ADE08B" stroke-width="2" stroke-miterlimit="10" stroke-linecap="round" stroke-linejoin="round"/>
<path d="M177.749 336.171C265.482 336.171 336.605 330.8 336.605 324.175C336.605 317.55 265.482 312.179 177.749 312.179C90.0149 312.179 18.8926 317.55 18.8926 324.175C18.8926 330.8 90.0149 336.171 177.749 336.171Z" fill="#FFC7CB"/>
<path d="M172.897 232.016C186.807 234.964 201.168 235.605 215.27 233.907C226.423 232.564 237.702 229.629 246.854 222.886C253.904 217.691 259.479 210.264 262.198 201.751C264.909 193.262 264.732 183.946 262.54 175.296C260.721 168.116 257.564 161.338 256.041 154.084C254.517 146.831 254.894 138.59 259.461 132.873C256.229 124.614 254.951 119.819 254.922 115.011C212.398 110.794 169.768 106.598 129.326 102.411C131.662 121.097 124.477 142.309 112.477 159.366C108.727 164.697 104.669 169.862 101.867 175.787C99.0659 181.712 97.6031 188.624 100.466 195.401C123.689 210.949 147.748 226.685 172.897 232.016Z" fill="#7D232F"/>
<path d="M83.435 323.704C74.7286 325.346 65.9113 326.354 57.0692 326.717C53.6297 326.859 49.6204 326.625 47.6108 323.727C45.4069 320.549 46.9137 316.147 48.48 312.585C59.1458 288.33 69.2775 267.313 78.0564 266.069C84.6844 265.131 87.2419 269.188 90.9123 274.333C88.3566 290.507 85.801 306.68 83.435 323.704Z" fill="#FF997D"/>
<path d="M104.987 246.049C101.745 251.619 100.317 258.301 101.963 265.421C97.4266 266.098 92.9987 267.554 89.9375 269.69C81.089 275.42 74.8154 285.247 73.1831 295.929C71.5508 306.611 74.5892 317.966 81.8594 326.499C109.396 328.033 136.931 329.568 164.942 330.605C172.222 330.874 179.31 328.02 184.446 322.663C184.495 322.612 184.544 322.561 184.594 322.509C210.074 322.509 231.449 323.607 253.947 323.693C265.76 323.737 276.084 315.297 278.672 303.349C279.737 298.43 280.135 293.393 279.872 288.766C279.4 280.474 276.425 272.384 271.795 265.575C268.276 260.401 262.82 257.03 256.752 256.309C249.187 255.411 241.443 255.199 233.295 255.948C231.086 252.148 227.418 249.289 223.934 247.369C185.241 245.332 146.51 244.12 104.987 246.049Z" fill="#FFC954"/>
<g opacity="0.502">
<path d="M104.166 265.35C113.425 263.966 122.684 262.581 131.943 261.196" stroke="#FFE8EA" stroke-width="2" stroke-miterlimit="10" stroke-linecap="round" stroke-linejoin="round"/>
<path d="M186.194 264.222C195.78 281.658 195.381 304.512 185.191 321.576" stroke="#FFE8EA" stroke-width="2" stroke-miterlimit="10" stroke-linecap="round" stroke-linejoin="round"/>
<path d="M190.98 268.918C204.433 263.992 218.194 259.976 232.149 256.9" stroke="#FFE8EA" stroke-width="2" stroke-miterlimit="10" stroke-linecap="round" stroke-linejoin="round"/>
</g>
<path d="M190.95 157.766C158.713 150.751 123.523 160.263 97.4678 183.052C97.999 198.901 100.765 214.67 105.677 229.885C107.305 231.055 108.933 232.226 110.85 233.083C105.724 238.734 102.117 245.85 100.867 253.286C123.805 246.302 161.666 246.001 186.312 262.983C201.358 262.38 216.247 257.928 229.313 249.198C226.302 246.974 223.291 244.749 220.58 241.702C234.8 230.937 244.528 214.005 247.797 195.433C242.343 184.478 232.857 176.132 222.426 170.213C211.995 164.294 200.722 159.892 190.95 157.766Z" fill="#F04662"/>
<path d="M227.35 173.102C226.361 181.149 221.303 188.294 214.411 191.917C207.526 195.531 198.974 195.531 192.082 191.917C186.953 189.221 182.877 184.747 179.511 179.909C175.036 173.475 171.613 166.256 169.451 158.647C173.631 157.307 177.349 155.446 180.045 152.535C181.297 151.186 182.318 149.616 183.068 147.912C183.906 146.043 184.417 144.008 184.544 141.95C184.56 141.858 184.56 141.76 184.568 141.668C185.357 141.892 186.147 142.115 186.936 142.33C196.398 144.977 205.858 147.135 215.383 148.848C215.336 151.577 215.415 154.306 215.622 157.027C215.854 160.045 216.883 162.923 218.59 165.313C219.308 166.33 220.154 167.264 221.111 168.084C223.146 169.828 225.228 171.49 227.35 173.102Z" fill="#FF997D"/>
<path d="M218.592 165.313C212.41 165.776 206.115 164.767 200.387 162.311C193.463 159.334 187.4 154.248 183.069 147.913C181.593 145.763 180.324 143.464 179.279 141.057C181.051 141.371 182.806 141.669 184.544 141.951C185.342 142.083 186.14 142.215 186.938 142.331C196.399 144.978 205.859 147.136 215.385 148.849C215.337 151.578 215.417 154.307 215.624 157.028C215.856 160.044 216.884 162.923 218.592 165.313Z" fill="#EB5954"/>
<path d="M150.134 188.48C146.881 205.759 135.745 221.625 120.061 231.33" stroke="#7D232F" stroke-width="2" stroke-miterlimit="10" stroke-linecap="round" stroke-linejoin="round"/>
<path d="M267.556 219.629C261.621 209.117 253.77 197.411 243.604 189.576C234.055 198.72 225.939 211.291 220.008 223.112C219.45 226.54 218.892 229.968 218.914 235.14C226.674 242.438 235.574 248.43 245.161 252.811C253.355 243.645 260.904 233.862 267.556 219.629Z" fill="#F04662"/>
<path d="M91.2127 166.041C82.542 179.924 77.1084 195.434 73.3189 211.745C71.6445 218.952 73.7778 226.577 79.086 231.544C83.0495 235.253 87.8721 237.98 93.0594 239.302C98.6176 240.718 104.527 240.507 110.108 238.715C116.629 236.622 121.146 230.434 121.439 223.363C122.321 202.093 120.393 180.698 115.713 159.968C107.727 163.004 98.602 165.074 91.2127 166.041Z" fill="#FF997D"/>
<path d="M116.214 162.425C119.878 155.332 122.157 147.475 122.874 139.464C123.041 137.605 122.799 135.214 121.083 134.651C120.083 134.323 119.017 134.817 118.112 135.364C115.013 137.239 112.368 139.912 110.435 143.552C108.349 137.665 105.316 132.14 101.498 127.275C100.45 125.94 99.1218 124.546 97.4611 124.575C95.881 124.602 94.5611 126.007 94.1049 127.575C93.2677 130.455 94.5987 133.694 94.9422 137.902C92.3417 134.428 89.1458 131.435 85.5496 129.103C84.3359 128.316 82.7925 127.595 81.5348 128.306C79.887 129.237 80.0977 131.741 80.6793 133.591C82.0487 137.947 84.1958 142.038 86.9786 145.596C84.2828 144.702 82.1742 144.287 79.7826 143.494C77.3909 142.7 74.2381 142.846 73.0253 145.125C71.6816 147.649 73.7783 150.754 76.1928 152.185C78.6073 153.616 80.7865 154.759 83.4016 156.433C80.7095 156.302 78.2748 156.105 75.6982 156.211C73.1224 156.316 70.161 158.208 70.5118 160.855C70.7656 162.771 72.5948 163.967 74.2601 164.836C78.1942 166.889 82.2795 168.629 87.802 170.311C92.3435 173.069 97.9539 173.871 103.046 172.488C108.14 171.104 113.335 167.998 116.214 162.425Z" fill="#FF997D"/>
<path d="M108.711 146.466C104.669 148.244 101.547 152.119 100.582 156.559" stroke="#EB5954" stroke-width="2" stroke-miterlimit="10" stroke-linecap="round" stroke-linejoin="round"/>
<path d="M179.13 175.901C179.386 181.513 178.68 187.215 176.368 192.204C174.773 195.657 172.403 198.768 169.052 201.273C169.197 197.908 168.691 194.499 167.579 191.357C168.539 200.578 162.104 209.837 154.03 210.871C157.18 200.103 154.874 188.182 151.49 177.39C151.442 177.245 151.402 177.098 151.353 176.953C149.003 169.508 145.942 161.361 144.603 151.566C144.022 147.292 143.765 142.708 144.04 137.732C153.27 137.962 163.628 143.424 173.894 146.313C174.162 147.145 174.425 147.986 174.674 148.853C177.162 157.315 178.727 167.281 179.13 175.901Z" fill="#7D232F"/>
<path d="M179.13 175.901C179.386 181.513 178.68 187.215 176.368 192.204C176.771 188.411 176.616 184.466 176.254 180.656C175.871 176.688 175.024 172.279 172.084 170.062C169.398 168.031 165.879 168.55 162.776 169.374C158.352 170.541 153.585 172.618 151.352 176.953C149.002 169.508 145.941 161.361 144.602 151.566C146.429 152.865 148.561 153.789 150.577 154.599C154.718 156.252 158.859 157.913 163.001 159.572C165.399 160.532 168.03 161.499 170.419 160.569C173.21 159.472 174.8 155.97 174.945 152.598C175 151.34 174.887 150.089 174.674 148.853C177.162 157.315 178.727 167.281 179.13 175.901Z" fill="#B53F36"/>
<path d="M264.515 116.809C264.002 119.48 263.342 122.102 262.548 124.673C261.34 128.602 259.816 132.397 258.011 136.003C256.108 139.807 253.735 143.174 251.002 146.018C244.527 152.799 236.057 156.694 227.138 156.801C216.287 156.926 205.458 156.313 194.915 153.419C179.388 149.144 164.295 139.228 156.106 123.109C146.561 104.312 148.254 78.8898 159.196 61.1919C168.797 45.6696 191.356 45.4958 209.496 46.9098C227.63 48.3238 245.349 56.4125 259.564 69.7517C265.555 84.1924 267.535 101.129 264.515 116.809Z" fill="#FF997D"/>
<path d="M273.932 77.6173C273.684 81.8849 273.198 86.2426 272.45 90.552C270.91 99.5495 268.258 108.349 264.358 115.709C265.535 103.858 265.091 92.3714 262.142 81.8602C254.951 79.1225 248.37 74.6403 243.337 68.5039C226.406 72.7544 207.586 67.9171 194.526 55.0565C192.208 60.945 183.208 65.3113 175.619 62.6562C165.334 88.8142 147.552 102.369 147.552 102.369C147.552 102.369 135.77 102.377 131.681 102.411C131.608 100.533 131.535 98.6559 131.47 96.7786C131.15 87.4828 131.1 78.1624 132.566 69.0329C134.331 58.0582 138.522 47.2336 145.946 39.9558C149.585 36.3919 154.088 33.8365 158.788 32.6951C163.677 31.5128 168.768 31.8518 173.33 34.1755C185.699 21.2248 203.968 14.4351 221.291 17.1149C233.893 19.0749 245.813 26.0136 254.79 36.2514C258.153 40.0717 261.102 44.3639 263.529 49.0208C268.054 51.2286 271.126 56.0583 272.637 61.2764C274.15 66.5031 274.251 72.1267 273.932 77.6173Z" fill="#7D232F"/>
<path d="M273.932 77.6173C273.684 81.8849 273.198 86.2426 272.45 90.552C272.442 87.6414 272.217 84.7461 271.672 81.8763C269.877 72.4486 263.674 63.4007 255.271 62.2023C251.327 61.6402 247.347 62.8139 243.373 62.5907C236.313 62.2023 230.095 57.5046 223.653 54.1886C204.855 44.5206 182.128 46.6715 164.07 58.0088C150.102 66.7832 138.923 80.6684 131.471 96.7786C131.151 87.4828 131.101 78.1624 132.567 69.0329C134.332 58.0582 138.523 47.2336 145.947 39.9558C149.586 36.3919 154.089 33.8365 158.789 32.6951C155.15 35.4822 152.048 39.3025 150.037 43.8264C148.954 46.2574 148.207 49.2848 149.449 51.6085C150.967 54.4364 154.512 54.6273 157.38 54.0062C165.588 52.22 172.757 46.7037 180.559 43.2804C196.096 36.4413 213.986 38.2769 229.174 46.0675C233.118 48.094 236.975 50.525 241.224 51.4261C245.48 52.3359 250.354 51.3844 253.136 47.6135C255.409 44.5206 255.766 40.1866 254.792 36.2504C258.155 40.0707 261.104 44.3629 263.531 49.0198C268.056 51.2277 271.128 56.0574 272.639 61.2755C274.15 66.5031 274.251 72.1267 273.932 77.6173Z" fill="#B53F36"/>
<path d="M155.634 101.869C152.073 98.5306 147.844 95.7549 143.116 94.8869C138.388 94.019 133.118 95.3256 129.922 99.0415C126.132 103.449 126.074 110.518 129.068 115.542C132.061 120.564 137.595 123.592 143.243 124.354C148.891 125.117 154.642 123.831 159.964 121.727" fill="#FF997D"/>
<path d="M133.223 106.786C139.243 104.675 146.432 106.879 150.378 112.042" stroke="#EB5954" stroke-width="2" stroke-miterlimit="10" stroke-linecap="round" stroke-linejoin="round"/>
<path d="M139.938 114.89C139.057 111.834 140.714 108.222 143.559 107.004" stroke="#EB5954" stroke-width="2" stroke-miterlimit="10" stroke-linecap="round" stroke-linejoin="round"/>
<path d="M231.485 104.623C229.688 108.623 228.951 113.128 229.374 117.519C229.624 120.112 230.146 123.124 228.4 125C226.899 126.612 224.193 126.496 222.477 125.132C220.763 123.768 219.938 121.472 219.785 119.237" stroke="#EB5954" stroke-width="2" stroke-miterlimit="10" stroke-linecap="round" stroke-linejoin="round"/>
<path d="M224.711 134.781C221.131 136.376 217.001 136.601 213.281 135.403C209.56 134.205 206.28 131.593 204.202 128.175" stroke="#EB5954" stroke-width="2" stroke-miterlimit="10" stroke-linecap="round" stroke-linejoin="round"/>
<path d="M190.38 111.017C189.896 108.083 191.176 105.408 193.238 105.042C195.301 104.676 197.366 106.758 197.849 109.692C198.333 112.627 197.053 115.302 194.991 115.667C192.928 116.033 190.863 113.951 190.38 111.017Z" fill="#7D232F"/>
<path d="M206.02 86.7336C203.294 81.3312 197.081 78.1092 191.301 79.1006C185.522 80.092 180.61 85.2227 179.666 91.2546C186.095 84.9075 196.159 82.9342 206.02 86.7336Z" fill="#7D232F"/>
<path d="M240.247 89.5387C243.733 85.9378 249.03 84.3349 253.839 85.425C255.879 85.8884 257.883 86.8532 259.223 88.515C260.513 90.1151 261.084 92.2347 261.187 94.3181C261.288 96.4015 260.958 98.4793 260.628 100.537C258.966 96.9324 256.136 93.9193 252.704 92.1017C249.272 90.2832 245.258 89.6717 240.247 89.5387Z" fill="#7D232F"/>
<path d="M192.183 128.978C195.027 123.055 191.507 115.247 184.321 111.539C177.136 107.831 169.005 109.627 166.161 115.55C163.317 121.473 166.837 129.281 174.023 132.989C181.208 136.697 189.339 134.901 192.183 128.978Z" fill="#FC796D"/>
<path d="M262.548 124.673C261.34 128.602 259.816 132.397 258.011 136.003C256.108 139.807 253.735 143.174 251.002 146.018C244.197 145.712 238.712 141.204 238.298 135.184C237.834 128.477 243.838 122.431 251.705 121.678C255.897 121.283 259.767 122.457 262.548 124.673Z" fill="#FC796D"/>
<path d="M238.781 117.093C239.862 114.335 242.309 112.76 244.248 113.577C246.187 114.394 246.882 117.291 245.802 120.049C244.721 122.806 242.274 124.381 240.336 123.564C238.397 122.748 237.701 119.85 238.781 117.093Z" fill="#7D232F"/>
<path d="M304.001 342C351.579 342 390.148 337.187 390.148 331.249C390.148 325.312 351.579 320.499 304.001 320.499C256.424 320.499 217.854 325.312 217.854 331.249C217.854 337.187 256.424 342 304.001 342Z" fill="#FFC7CB"/>
<path d="M228.021 236.648C228.021 236.648 248.848 260.61 260.655 266.089L270.498 244.382L240.221 222.907L228.021 236.648Z" fill="#FF997D"/>
<path d="M241.223 223.618C241.223 223.618 245.621 214.335 242.829 212.544C239.82 210.616 236.244 217.497 236.244 217.497C236.244 217.497 232.405 206.419 229.918 207.365C227.431 208.311 227.859 215.321 227.859 215.321C227.859 215.321 222.203 208.879 220.347 211.065C218.492 213.251 223.094 220.226 223.094 220.226C223.094 220.226 217.502 216.226 216.219 218.919C214.936 221.612 219.664 226.913 219.664 226.913C219.664 226.913 213.842 226.253 214.095 229.136C214.495 233.694 228.959 237.483 228.959 237.483L241.223 223.618Z" fill="#FF997D"/>
<path d="M234.828 219.742C232.608 221.048 231.094 223.561 230.934 226.203" stroke="#EB5954" stroke-width="2" stroke-miterlimit="10" stroke-linecap="round" stroke-linejoin="round"/>
<path d="M246.537 228.636C247.928 231.808 249.934 234.688 252.402 237.054" stroke="#EB5954" stroke-width="2" stroke-miterlimit="10" stroke-linecap="round" stroke-linejoin="round"/>
<path d="M373.21 251.223C373.21 251.223 345.747 266.384 332.846 267.36L330.735 243.474L366.262 233.993L373.21 251.223Z" fill="#FF997D"/>
<path d="M365.086 234.307C365.086 234.307 364.005 224.025 367.22 223.329C370.683 222.58 371.78 230.313 371.78 230.313C371.78 230.313 379.034 221.257 381.061 223.026C383.088 224.794 380.378 231.233 380.378 231.233C380.378 231.233 387.814 227.177 388.84 229.889C389.865 232.6 383.244 237.53 383.244 237.53C383.244 237.53 389.816 235.747 390.136 238.732C390.457 241.717 384.268 245.028 384.268 245.028C384.268 245.028 389.958 246.465 388.771 249.087C386.896 253.231 372.053 251.678 372.053 251.678L365.086 234.307Z" fill="#FF997D"/>
<path d="M372.372 232.924C374.029 234.938 374.626 237.835 373.908 240.375" stroke="#EB5954" stroke-width="2" stroke-miterlimit="10" stroke-linecap="round" stroke-linejoin="round"/>
<path d="M324.008 308.092C329.272 304.386 333.53 299.121 336.206 293.137C332.685 291.308 326.708 291.378 321.759 291.833C303.659 291.816 285.558 291.799 267.272 291.893C262.028 291.656 254.829 291.16 250.474 292.78C260.192 301.522 273.106 307.978 285.692 310.75C298.278 313.522 312.996 315.846 324.008 308.092Z" fill="#4F1628"/>
<path d="M326.624 291.701C306.938 297.383 283.775 299.849 265.42 292.27C265.645 283.609 265.831 279.929 265.911 271.728C257.914 266.527 250.625 262.549 243.566 257.503C246.743 248.028 251.052 238.239 257.561 231.889C282.163 235.142 307.081 235.826 333.632 236.383C338.059 246.237 341.19 256.716 342.352 267.592C336.217 270.341 329.827 272.476 323.177 274.042C324.268 280.157 324.746 284.644 326.624 291.701Z" fill="#AC56CC"/>
<path d="M311.455 247.575C311.104 249.236 310.513 250.824 309.716 252.289C306.357 258.483 299.45 262.642 292.572 262.055C287.228 261.592 282.33 258.309 279.314 253.736C277.519 251.024 276.395 247.856 276.243 244.556C288.464 245.259 299.959 246.416 311.455 247.575Z" fill="#FF997D"/>
<path d="M311.455 247.575C311.104 249.236 310.513 250.824 309.716 252.289C304.715 254.017 299.362 254.737 294.065 254.802C289.127 254.86 284.212 254.381 279.314 253.735C277.519 251.023 276.395 247.855 276.243 244.555C288.464 245.259 299.959 246.416 311.455 247.575Z" fill="#EB5954"/>
<path d="M345.102 220.051C341.84 234.946 329.754 247.359 315.363 250.601C307.841 252.296 300.015 251.651 292.42 250.336C280.861 248.334 269.55 244.787 258.852 239.841C252.55 236.922 247.915 231.257 246.08 224.525C245.665 222.995 245.394 221.407 245.283 219.778C244.939 214.783 245.186 209.837 246.025 205.041C246.479 202.436 247.117 199.872 247.931 197.366C251.672 185.878 259.203 175.757 268.966 169.083C277.949 162.946 289.922 166.114 299.95 167.611C310.958 169.257 322.215 172.11 330.997 179.188C342.63 188.559 348.358 205.157 345.102 220.051Z" fill="#FF997D"/>
<path d="M365.865 185.847C365.02 189.527 362.004 192.472 358.598 193.522C360.233 200.981 360.265 208.789 358.805 216.281C357.489 222.997 354.976 229.464 351.346 235.195C347.988 233.615 344.358 232.664 340.968 232.49C334.562 220.854 331.235 207.416 331.491 193.522C328.42 193.315 325.428 191.975 323.171 189.809C320.913 187.634 319.414 184.64 318.784 180.762C300.117 182.309 281.171 180.241 263.27 174.534C255.78 182.49 249.964 192.125 246.502 203.181C243.232 196.855 242.657 189.089 244.954 182.324C244.795 181.969 244.659 181.597 244.539 181.224C241.579 172.499 246.868 159.698 252.987 155.505C256.026 153.421 259.289 152.015 262.688 151.18C262.696 151.18 262.696 151.18 262.696 151.171C270.865 149.137 279.767 150.361 288.048 153.131C289.651 147.119 295.745 143.24 301.744 142.836C307.751 142.439 313.615 144.87 318.848 147.963C327.606 153.141 335.727 161.13 338.36 171.657C342.38 170.93 346.441 170.194 350.517 170.392C352.982 170.508 355.471 170.996 357.744 171.971C359.228 172.609 360.624 173.452 361.844 174.535C364.957 177.279 366.815 181.736 365.865 185.847Z" fill="#4F1628"/>
<path d="M365.865 185.847C365.02 189.527 362.004 192.472 358.598 193.522C360.233 200.981 360.265 208.789 358.805 216.281C358.725 214.785 358.581 213.296 358.342 211.808C357.48 206.507 355.191 201.255 351.107 197.947C348.02 195.441 344.174 194.226 340.609 192.547C333.533 189.231 327.454 184.045 320.897 179.736C306.514 170.267 289.131 164.925 272.283 167.53C262.032 169.118 252.109 173.956 244.539 181.225C241.579 172.5 246.868 159.699 252.987 155.506C256.026 153.422 259.289 152.016 262.687 151.181C261.618 152.173 260.677 153.389 260.485 154.844C260.254 156.738 261.403 158.599 262.95 159.632C264.497 160.658 266.372 161.013 268.199 161.211C280.348 162.518 292.96 158.011 304.639 161.7C312.433 164.156 318.735 169.953 325.284 174.965C331.841 179.977 339.515 184.5 347.62 183.706C351.481 183.334 355.47 181.489 357.297 177.95C358.222 176.148 358.342 173.906 357.744 171.971C359.228 172.608 360.624 173.451 361.844 174.534C364.956 177.279 366.815 181.736 365.865 185.847Z" fill="#6B2429"/>
<path d="M306.073 192.389C309.315 189.888 314.01 189.616 317.5 191.727C320.99 193.838 323.072 198.21 322.567 202.367C319.398 196.443 312.754 192.719 306.073 192.389Z" fill="#4F1628"/>
<path d="M277.332 187.091C274.735 183.655 270.364 181.752 266.179 182.237C261.994 182.721 258.136 185.576 256.333 189.522C262.189 185.836 269.627 184.979 277.332 187.091Z" fill="#4F1628"/>
<path d="M300.807 212.783C302.384 209.63 305.294 207.174 308.645 206.434C311.995 205.694 315.717 206.772 318.062 209.361C320.407 211.951 321.192 216.008 319.802 219.253C318.85 215.295 315.789 211.957 312.024 210.77C308.258 209.583 303.922 210.593 300.807 212.783Z" fill="#4F1628"/>
<path d="M272.133 207.894C272.089 204.501 270.684 201.096 268.168 198.925C265.653 196.754 262.027 195.951 258.953 197.115C255.879 198.279 253.558 201.481 253.574 204.874C255.877 201.891 259.765 200.317 263.407 200.894C267.05 201.47 270.309 204.175 272.133 207.894Z" fill="#4F1628"/>
<path d="M304.403 223.4C304.244 225.41 303.653 227.354 302.721 229.115C301.189 232.068 298.716 234.507 295.773 235.905C291.058 238.13 285.307 237.683 280.84 234.954C280.265 234.607 279.723 234.218 279.196 233.797C275.615 230.952 273.15 226.643 272.368 222.028C272.184 220.961 272.136 219.721 272.862 218.935C272.982 218.803 273.118 218.695 273.262 218.613C273.98 218.158 274.969 218.166 275.847 218.232C278.974 218.472 282.101 218.827 285.204 219.299C290.334 220.084 295.503 219.348 300.616 219.373C301.653 219.382 302.801 219.423 303.575 220.158C303.663 220.241 303.735 220.324 303.807 220.406C304.412 221.201 304.483 222.359 304.403 223.4Z" fill="#4F1628"/>
<path d="M303.805 220.407C298.046 225.088 289.765 224.401 284.293 223.79C279.044 223.211 274.386 221.21 273.261 218.613C273.979 218.158 274.968 218.166 275.846 218.232C278.973 218.472 282.1 218.827 285.203 219.299C290.333 220.084 295.502 219.348 300.615 219.373C301.652 219.382 302.8 219.423 303.574 220.158C303.661 220.242 303.733 220.325 303.805 220.407Z" fill="#FFE8EA"/>
<path d="M302.72 229.115C301.188 232.068 298.715 234.507 295.772 235.905C291.057 238.13 285.306 237.683 280.839 234.954C280.264 234.607 279.722 234.218 279.195 233.797C280.982 230.936 283.591 228.612 286.614 227.272C291.097 225.296 296.426 225.494 300.758 227.809C301.444 228.173 302.114 228.611 302.72 229.115Z" fill="#EB5954"/>
<path d="M321.504 240.353C328.773 240.353 334.666 235.91 334.666 230.428C334.666 224.947 328.773 220.504 321.504 220.504C314.234 220.504 308.341 224.947 308.341 230.428C308.341 235.91 314.234 240.353 321.504 240.353Z" fill="#FC796D"/>
<path d="M262.291 220.837C260.241 225.89 253.149 227.61 246.448 224.691C246.328 224.633 246.2 224.584 246.08 224.526C245.665 222.996 245.394 221.408 245.283 219.779C244.939 214.784 245.186 209.838 246.025 205.042C248.474 204.801 251.21 205.232 253.875 206.398C260.575 209.325 264.349 215.785 262.291 220.837Z" fill="#FC796D"/>
<path d="M284.198 208.604C282.986 210.905 283.142 213.91 284.586 216.063" stroke="#EB5954" stroke-width="2" stroke-miterlimit="10" stroke-linecap="round" stroke-linejoin="round"/>
<path d="M337.535 229.134C341.232 227.963 345.217 227.446 348.907 228.507C352.598 229.569 355.935 232.421 356.961 236.294C358.177 240.889 355.803 246.097 351.938 248.708C348.074 251.318 343.067 251.551 338.752 250.082C334.437 248.613 330.747 245.603 327.646 242.149" fill="#FF997D"/>
<path d="M351.946 240.791C348.345 237.08 342.43 236.114 337.834 238.485" stroke="#EB5954" stroke-width="2" stroke-miterlimit="10" stroke-linecap="round" stroke-linejoin="round"/>
<path d="M344.355 244.325C346.033 242.398 346.076 239.154 344.45 237.238" stroke="#EB5954" stroke-width="2" stroke-miterlimit="10" stroke-linecap="round" stroke-linejoin="round"/>
<path d="M357.379 238.745C357.36 243.027 355.129 247.231 351.651 249.539C348.172 251.848 343.555 252.188 339.797 250.413" stroke="#EB5954" stroke-width="2" stroke-miterlimit="10" stroke-linecap="round" stroke-linejoin="round"/>
<path d="M290.311 330.961C276.611 331.022 262.9 329.407 249.533 326.163C246.608 325.454 244.071 323.459 242.696 320.624C240.537 316.169 239.703 311.031 240.607 306.217C241.362 302.196 243.314 298.47 246.046 295.585C248.878 292.594 253.07 291.545 256.905 292.771C269.006 296.64 279.942 301.143 290.399 306.469C291.694 314.853 291.767 323.442 290.311 330.961Z" fill="#FF997D"/>
<path d="M286.427 307.134C288.013 306.174 289.563 305.449 291.303 304.944C294.145 304.121 297.192 305.07 299.143 307.426C304.562 313.97 308.546 323.16 309.347 331.254C309.448 332.285 309.42 333.336 309.119 334.32C308.075 337.745 305.266 337.732 302.866 337.311C297.376 336.347 292.147 333.725 287.881 329.85C287.722 322.876 287.002 314.408 286.427 307.134Z" fill="#FF997D"/>
<path d="M295.868 330.837C309.567 331.05 323.294 329.587 336.693 326.491C339.624 325.814 342.182 323.847 343.586 321.028C345.79 316.597 346.676 311.469 345.822 306.644C345.109 302.616 343.195 298.868 340.494 295.953C337.693 292.931 333.512 291.836 329.664 293.019C317.525 296.754 306.543 301.135 296.031 306.346C294.651 314.715 294.489 323.303 295.868 330.837Z" fill="#FF997D"/>
<path d="M299.996 307.055C298.419 306.077 296.877 305.336 295.143 304.812C292.31 303.958 289.252 304.873 287.277 307.207C281.791 313.691 277.713 322.837 276.829 330.922C276.716 331.951 276.734 333.003 277.025 333.99C278.034 337.427 280.844 337.445 283.247 337.051C288.747 336.148 294.002 333.584 298.308 329.755C298.539 322.782 299.346 314.323 299.996 307.055Z" fill="#FF997D"/>
<path d="M288.353 305.964C282.617 312.624 278.752 320.995 277.342 329.802" stroke="#EB5954" stroke-width="2" stroke-miterlimit="10" stroke-linecap="round" stroke-linejoin="round"/>
<path d="M309.152 331.002C305.35 331.299 301.519 331.217 297.654 330.938C296.237 331.781 294.819 332.625 293.402 333.468" stroke="#EB5954" stroke-width="2" stroke-miterlimit="10" stroke-linecap="round" stroke-linejoin="round"/>
<path d="M77.6004 62.5821C76.9207 71.7724 76.2164 79.093 70.4209 80.3626C76.2164 81.6322 76.9207 88.9528 77.6004 98.1431C78.445 88.9613 78.652 81.9418 84.7799 80.3626C78.652 78.7844 78.445 71.7639 77.6004 62.5821Z" fill="#FFC954"/>
<path d="M241.214 166.237C241.025 168.789 240.829 170.823 239.22 171.176C240.83 171.528 241.025 173.562 241.214 176.115C241.448 173.564 241.506 171.614 243.208 171.176C241.506 170.737 241.448 168.787 241.214 166.237Z" fill="#FFC954"/>
<path d="M342.836 39.6557C342.647 42.2083 342.451 44.2423 340.842 44.5946C342.452 44.9469 342.647 46.981 342.836 49.5336C343.07 46.9829 343.128 45.0334 344.83 44.5946C343.128 44.1559 343.07 42.2064 342.836 39.6557Z" fill="#FFC954"/>
<path d="M237.226 0C237.037 2.55255 236.841 4.58662 235.231 4.93892C236.842 5.29123 237.037 7.3253 237.226 9.87785C237.46 7.3272 237.518 5.37764 239.22 4.93892C237.518 4.5002 237.46 2.55065 237.226 0Z" fill="#FFC954"/>
<path d="M290.525 80.356C290.261 83.9303 289.987 86.7772 287.733 87.271C289.987 87.7648 290.261 90.6118 290.525 94.1861C290.854 90.6156 290.935 87.8854 293.317 87.271C290.934 86.6566 290.853 83.9275 290.525 80.356Z" fill="#FFC954"/>
<path d="M112.222 105.212C111.957 108.786 111.683 111.633 109.43 112.127C111.683 112.621 111.957 115.468 112.222 119.042C112.55 115.472 112.631 112.741 115.014 112.127C112.63 111.513 112.55 108.783 112.222 105.212Z" fill="#FFC954"/>
<path d="M115.014 34.7168C114.825 37.2693 114.629 39.3034 113.02 39.6557C114.629 40.008 114.825 42.0421 115.014 44.5946C115.248 42.044 115.306 40.0944 117.008 39.6557C115.306 39.217 115.248 37.2674 115.014 34.7168Z" fill="#FFC954"/>
<path d="M142.292 172.919C142.103 175.472 141.907 177.506 140.298 177.858C141.908 178.21 142.103 180.244 142.292 182.797C142.526 180.246 142.584 178.297 144.286 177.858C142.584 177.419 142.526 175.47 142.292 172.919Z" fill="#FFC954"/>
<path d="M350.016 115.774C349.337 124.964 348.632 132.284 342.837 133.554C348.632 134.824 349.337 142.144 350.016 151.335C350.861 142.153 351.068 135.133 357.196 133.554C351.068 131.975 350.861 124.955 350.016 115.774Z" fill="#FFC954"/>
</svg>
