<svg width="196" height="28" viewBox="0 0 196 28" fill="none" xmlns="http://www.w3.org/2000/svg">
<path d="M8.44778 7.48799C8.44778 8.15999 8.78378 8.68799 9.45578 9.07199C10.1598 9.45599 11.2478 9.87199 12.7198 10.32C14.4798 10.896 15.9198 11.456 17.0398 12C18.1918 12.544 19.1838 13.392 20.0158 14.544C20.8798 15.696 21.3118 17.2 21.3118 19.056C21.3118 25.008 17.4398 27.984 9.69578 27.984C8.41578 27.984 6.84778 27.872 4.99178 27.648C3.16778 27.424 1.50378 27.136 -0.00021863 26.784C0.0637814 26.112 0.191781 25.136 0.383781 23.856C0.607781 22.544 0.815781 21.568 1.00778 20.928C2.12778 21.088 3.80778 21.28 6.04778 21.504C8.31978 21.728 10.0318 21.84 11.1838 21.84C11.8558 21.84 12.2558 21.792 12.3838 21.696C12.5758 21.568 12.7198 21.36 12.8158 21.072C12.9438 20.752 13.0078 20.48 13.0078 20.256C13.0078 19.616 12.7038 19.136 12.0958 18.816C11.4878 18.464 10.4478 18.048 8.97578 17.568C7.21578 17.024 5.75978 16.464 4.60778 15.888C3.45578 15.312 2.44778 14.416 1.58378 13.2C0.719781 11.984 0.287781 10.384 0.287781 8.39999C0.287781 6.99199 0.607781 5.61599 1.24778 4.27199C1.88778 2.89599 2.54378 1.96799 3.21578 1.48799C3.72778 1.13599 4.78378 0.799992 6.38378 0.479992C7.98378 0.159992 9.48778 -7.62939e-06 10.8958 -7.62939e-06C14.4798 -7.62939e-06 17.4078 0.335993 19.6798 1.00799C19.6478 1.64799 19.5358 2.52799 19.3438 3.64799C19.1838 4.76799 19.0078 5.79199 18.8158 6.71999L17.7118 6.67199C13.5518 6.38399 10.8958 6.23999 9.74378 6.23999C9.26378 6.23999 8.99178 6.25599 8.92778 6.28799C8.79978 6.35199 8.68778 6.49599 8.59178 6.71999C8.49578 6.94399 8.44778 7.19999 8.44778 7.48799ZM39.0684 27.456H30.4284V6.09599H22.7004V0.0959911H46.7964V6.09599H39.0684V27.456ZM75.1442 0.0959911V15.408C75.1442 18.576 74.7922 21.056 74.0882 22.848C73.4162 24.608 72.1362 25.904 70.2482 26.736C68.3602 27.568 65.6082 27.984 61.9922 27.984C59.3362 27.984 57.0962 27.712 55.2722 27.168C53.4482 26.592 51.9922 25.52 50.9042 23.952C49.8482 22.384 49.3202 20.176 49.3202 17.328V0.0959911H57.9602V15.504C57.9602 17.2 58.0402 18.496 58.2002 19.392C58.3922 20.256 58.8082 20.928 59.4482 21.408C60.0882 21.856 61.0642 22.08 62.3762 22.08C63.1762 22.08 63.9282 22 64.6322 21.84C65.3362 21.68 65.8162 21.44 66.0722 21.12C66.3602 20.736 66.5042 19.344 66.5042 16.944V0.0959911H75.1442ZM87.7168 16.416V27.456H79.7008V0.0959911H87.8128L95.0608 11.136C96.1488 12.768 96.9808 14.144 97.5568 15.264H97.7008V10.656V0.0959911H105.669V27.456H97.5088L90.0688 15.936L87.9088 12.672H87.7648L87.7168 16.416ZM124.287 27.456H115.647V6.09599H107.919V0.0959911H132.015V6.09599H124.287V27.456ZM134.827 0.0959911H143.467V27.456H134.827V0.0959911ZM148.23 0.0959911H167.862V6.04799H156.87V11.472H165.942V16.704H156.87V27.456H148.23V0.0959911ZM185.899 18.72V27.456H177.259V18.816L168.043 0.0959911H176.827L180.475 8.97599C180.859 9.87199 181.211 10.816 181.531 11.808H181.627C181.979 10.72 182.331 9.74399 182.683 8.87999L186.283 0.0959911H195.019L185.899 18.72Z" fill="#1886C1"/>
</svg>
